# xmcd
#
# Track frame offsets:
#	150
#	13634
#	25054
#	38248
#	50882
#	63844
#	78448
#	90152
#	101810
#	113473
#
# Disc length: 1672 seconds
#
# Revision: 1
# Processed by: cddbd v1.5.1PL0 Copyright (c) Steve Scherf et al.
# Submitted via: audiograbber 1.83.01
#
DISCID=6f06860a
DTITLE=Sam and Dave - I'm A Soul Man
DYEAR=1900
DGENRE=Soul
TTITLE0=Don't Pull Your Love
TTITLE1=Can't Find Another Way
TTITLE2=Soul Man
TTITLE3=I Said I Wasn't Gonna Tell Anybody
TTITLE4=I Thank You
TTITLE5=When Something Is Wrong With My Baby
TTITLE6=Hold On I'm Coming
TTITLE7=Soul Sister, Brown Sugar
TTITLE8=Soothe Me
TTITLE9=You Don't Know Like I Know
EXTD=
EXTT0=
EXTT1=
EXTT2=
EXTT3=
EXTT4=
EXTT5=
EXTT6=
EXTT7=
EXTT8=
EXTT9=
PLAYORDER=
